<?xml version="1.0" encoding="UTF-8"?>
<svg xmlns="http://www.w3.org/2000/svg" viewBox="0 0 1600 900" role="img" aria-labelledby="title desc">
  <title id="title">FBA prep hero</title>
  <desc id="desc">Amazon FBA prep and compliance-ready shipping support.</desc>
  <defs>
    <linearGradient id="bg" x1="0%" y1="0%" x2="100%" y2="100%">
      <stop offset="0%" stop-color="#122139"/>
      <stop offset="100%" stop-color="#314d6b"/>
    </linearGradient>
    <linearGradient id="panel" x1="0%" y1="0%" x2="0%" y2="100%">
      <stop offset="0%" stop-color="#ffffff" stop-opacity="0.95"/>
      <stop offset="100%" stop-color="#e8eef7" stop-opacity="0.7"/>
    </linearGradient>
    <filter id="shadow" x="-20%" y="-20%" width="140%" height="140%">
      <feDropShadow dx="0" dy="20" stdDeviation="24" flood-color="#08111f" flood-opacity="0.28"/>
    </filter>
  </defs>
  <rect width="1600" height="900" fill="url(#bg)"/>
  <circle cx="1360" cy="130" r="240" fill="#ffffff" opacity="0.07"/>
  <circle cx="250" cy="790" r="260" fill="#ffffff" opacity="0.05"/>
  <path d="M-40 690 C 260 600, 420 840, 790 720 S 1310 590, 1660 720 L 1660 930 L -40 930 Z" fill="#07121f" opacity="0.44"/>
  <path d="M-50 610 C 270 520, 470 760, 820 640 S 1330 500, 1650 610" fill="none" stroke="#7fb3ff" stroke-opacity="0.2" stroke-width="18" stroke-linecap="round"/>
  
  
      <g filter="url(#shadow)">
        <rect x="160" y="140" width="1240" height="620" rx="42" fill="#f5f8fc" opacity="0.92"/>
        <rect x="198" y="178" width="1164" height="544" rx="30" fill="#132238"/>
        <rect x="242" y="228" width="280" height="154" rx="24" fill="#eef4fb"/>
        <rect x="548" y="228" width="280" height="154" rx="24" fill="#22344b"/>
        <rect x="854" y="228" width="468" height="154" rx="24" fill="#22344b"/>
        <rect x="242" y="412" width="1080" height="238" rx="28" fill="#1e2f44"/>
        <path d="M286 490h196" stroke="#f0a500" stroke-width="12" stroke-linecap="round"/>
        <path d="M286 532h154" stroke="#8ea0b7" stroke-width="12" stroke-linecap="round" opacity="0.8"/>
        <rect x="584" y="468" width="180" height="110" rx="22" fill="#2a3e56"/>
        <rect x="790" y="468" width="180" height="110" rx="22" fill="#2a3e56"/>
        <rect x="996" y="468" width="180" height="110" rx="22" fill="#2a3e56"/>
        <path d="M618 524l24 24 42-48" fill="none" stroke="#6ee7a8" stroke-width="10" stroke-linecap="round" stroke-linejoin="round"/>
        <path d="M824 524l22 22 40-44" fill="none" stroke="#6ee7a8" stroke-width="10" stroke-linecap="round" stroke-linejoin="round"/>
        <path d="M1030 524l22 22 40-44" fill="none" stroke="#6ee7a8" stroke-width="10" stroke-linecap="round" stroke-linejoin="round"/>
        <rect x="590" y="276" width="116" height="18" rx="9" fill="#d5dfeb"/>
        <rect x="590" y="310" width="148" height="12" rx="6" fill="#9fb0c3"/>
        <rect x="894" y="276" width="250" height="18" rx="9" fill="#d5dfeb"/>
        <rect x="894" y="310" width="180" height="12" rx="6" fill="#9fb0c3"/>
      </g>
</svg>