<?xml version="1.0" encoding="UTF-8"?>
<svg xmlns="http://www.w3.org/2000/svg" viewBox="0 0 1600 900" role="img" aria-labelledby="title desc">
  <title id="title">Fulfillment technology illustration</title>
  <desc id="desc">Connected software interfaces and shipping analytics.</desc>
  <defs>
    <linearGradient id="bg" x1="0%" y1="0%" x2="100%" y2="100%">
      <stop offset="0%" stop-color="#111c32"/>
      <stop offset="100%" stop-color="#2a4360"/>
    </linearGradient>
    <linearGradient id="panel" x1="0%" y1="0%" x2="0%" y2="100%">
      <stop offset="0%" stop-color="#ffffff" stop-opacity="0.95"/>
      <stop offset="100%" stop-color="#e8eef7" stop-opacity="0.7"/>
    </linearGradient>
    <filter id="shadow" x="-20%" y="-20%" width="140%" height="140%">
      <feDropShadow dx="0" dy="20" stdDeviation="24" flood-color="#08111f" flood-opacity="0.28"/>
    </filter>
  </defs>
  <rect width="1600" height="900" fill="url(#bg)"/>
  <circle cx="1360" cy="130" r="240" fill="#ffffff" opacity="0.07"/>
  <circle cx="250" cy="790" r="260" fill="#ffffff" opacity="0.05"/>
  <path d="M-40 690 C 260 600, 420 840, 790 720 S 1310 590, 1660 720 L 1660 930 L -40 930 Z" fill="#07121f" opacity="0.44"/>
  <path d="M-50 610 C 270 520, 470 760, 820 640 S 1330 500, 1650 610" fill="none" stroke="#7fb3ff" stroke-opacity="0.2" stroke-width="18" stroke-linecap="round"/>
  <circle cx="1210" cy="182" r="78" fill="#8ec2ff" opacity="0.12"/>
<circle cx="1410" cy="710" r="110" fill="#f0a500" opacity="0.10"/>
  
    <g filter="url(#shadow)">
      <rect x="110" y="120" width="820" height="600" rx="40" fill="#f6fafc" opacity="0.92"/>
      <rect x="142" y="150" width="756" height="536" rx="28" fill="#0e1b2c"/>
      <rect x="170" y="182" width="700" height="468" rx="22" fill="url(#panel)"/>
      <rect x="184" y="194" width="672" height="436" rx="18" fill="#10263c" opacity="0.8"/>
      
      <rect x="210" y="230" width="240" height="76" rx="18" fill="#ffffff" opacity="0.9"/>
      <rect x="240" y="252" width="110" height="18" rx="9" fill="#20354f" opacity="0.72"/>
      <rect x="240" y="278" width="164" height="8" rx="4" fill="#8ea7c4" opacity="0.7"/>
      <rect x="472" y="230" width="230" height="76" rx="18" fill="#ffffff" opacity="0.82"/>
      <rect x="500" y="252" width="104" height="18" rx="9" fill="#20354f" opacity="0.72"/>
      <rect x="500" y="278" width="150" height="8" rx="4" fill="#8ea7c4" opacity="0.7"/>
      <rect x="718" y="230" width="128" height="76" rx="18" fill="#f0a500" opacity="0.92"/>
      <rect x="742" y="252" width="74" height="18" rx="9" fill="#1a1a2e" opacity="0.82"/>
    </g>
    
    
    
    
    
      <g filter="url(#shadow)">
        <rect x="990" y="220" width="410" height="330" rx="30" fill="#eff4fb" opacity="0.95"/>
        <rect x="1024" y="254" width="138" height="74" rx="20" fill="#ffffff"/>
        <rect x="1192" y="254" width="138" height="74" rx="20" fill="#ffffff"/>
        <rect x="1024" y="352" width="138" height="74" rx="20" fill="#ffffff"/>
        <rect x="1192" y="352" width="138" height="74" rx="20" fill="#ffffff"/>
        <rect x="1100" y="460" width="188" height="42" rx="16" fill="#f0a500"/>
        <path d="M1096 290h34m-17-17v34" stroke="#50657f" stroke-width="8" stroke-linecap="round"/>
        <path d="M1268 290h34m-17-17v34" stroke="#50657f" stroke-width="8" stroke-linecap="round"/>
        <path d="M1096 388h34m-17-17v34" stroke="#50657f" stroke-width="8" stroke-linecap="round"/>
        <path d="M1268 388h34m-17-17v34" stroke="#50657f" stroke-width="8" stroke-linecap="round"/>
        <path d="M1156 290h32" stroke="#9eb1c7" stroke-width="8" stroke-linecap="round"/>
        <path d="M1328 290h32" stroke="#9eb1c7" stroke-width="8" stroke-linecap="round"/>
        <path d="M1156 388h32" stroke="#9eb1c7" stroke-width="8" stroke-linecap="round"/>
        <path d="M1328 388h32" stroke="#9eb1c7" stroke-width="8" stroke-linecap="round"/>
      </g>
    <g opacity="0.9">
      <circle cx="340" cy="405" r="74" fill="#f0a500" opacity="0.16"/>
      <circle cx="340" cy="405" r="34" fill="#f0a500" opacity="0.42"/>
      <path d="M316 405h48m-24-24v48" stroke="#f0a500" stroke-width="8" stroke-linecap="round" opacity="0.9"/>
    </g>
    <g transform="translate(160,708)">
      <rect x="0" y="0" width="1280" height="58" rx="18" fill="#ffffff" opacity="0.08"/>
      <text x="24" y="35" fill="#dbe7f7" font-family="Arial, Helvetica, sans-serif" font-size="24" font-weight="700">Integrations and automation</text>
    </g>
</svg>