<?xml version="1.0" encoding="UTF-8"?>
<svg xmlns="http://www.w3.org/2000/svg" viewBox="0 0 1600 900" role="img" aria-labelledby="title desc">
  <title id="title">Fulfillment dashboard illustration</title>
  <desc id="desc">A premium operations dashboard with shipping analytics and order trends.</desc>
  <defs>
    <linearGradient id="bg" x1="0%" y1="0%" x2="100%" y2="100%">
      <stop offset="0%" stop-color="#101d31"/>
      <stop offset="100%" stop-color="#293f5e"/>
    </linearGradient>
    <linearGradient id="panel" x1="0%" y1="0%" x2="0%" y2="100%">
      <stop offset="0%" stop-color="#ffffff" stop-opacity="0.95"/>
      <stop offset="100%" stop-color="#e8eef7" stop-opacity="0.7"/>
    </linearGradient>
    <filter id="shadow" x="-20%" y="-20%" width="140%" height="140%">
      <feDropShadow dx="0" dy="20" stdDeviation="24" flood-color="#08111f" flood-opacity="0.28"/>
    </filter>
  </defs>
  <rect width="1600" height="900" fill="url(#bg)"/>
  <circle cx="1360" cy="130" r="240" fill="#ffffff" opacity="0.07"/>
  <circle cx="250" cy="790" r="260" fill="#ffffff" opacity="0.05"/>
  <path d="M-40 690 C 260 600, 420 840, 790 720 S 1310 590, 1660 720 L 1660 930 L -40 930 Z" fill="#07121f" opacity="0.44"/>
  <path d="M-50 610 C 270 520, 470 760, 820 640 S 1330 500, 1650 610" fill="none" stroke="#7fb3ff" stroke-opacity="0.2" stroke-width="18" stroke-linecap="round"/>
  <circle cx="1250" cy="200" r="118" fill="#8ec2ff" opacity="0.10"/>
<circle cx="124" cy="176" r="72" fill="#f0a500" opacity="0.10"/>
  
      <g filter="url(#shadow)">
        <rect x="140" y="128" width="1320" height="640" rx="42" fill="#f5f8fc" opacity="0.92"/>
        <rect x="176" y="166" width="1248" height="572" rx="30" fill="#132238"/>
        <rect x="214" y="208" width="1180" height="70" rx="20" fill="#eef4fb"/>
        <rect x="214" y="304" width="314" height="380" rx="28" fill="#20334a"/>
        <rect x="548" y="304" width="304" height="380" rx="28" fill="#20334a"/>
        <rect x="872" y="304" width="522" height="380" rx="28" fill="#eef4fb"/>
        <rect x="254" y="356" width="212" height="16" rx="8" fill="#8ea0b7"/>
        <rect x="254" y="394" width="180" height="16" rx="8" fill="#8ea0b7" opacity="0.8"/>
        <rect x="254" y="430" width="140" height="16" rx="8" fill="#f0a500"/>
        <rect x="254" y="470" width="230" height="16" rx="8" fill="#8ec2ff"/>
        <path d="M596 588 L648 544 L688 560 L742 484 L790 520" fill="none" stroke="#8ec2ff" stroke-width="12" stroke-linecap="round" stroke-linejoin="round"/>
        <circle cx="648" cy="544" r="10" fill="#f0a500"/>
        <circle cx="688" cy="560" r="10" fill="#6ee7a8"/>
        <circle cx="742" cy="484" r="10" fill="#ff8e85"/>
        <circle cx="790" cy="520" r="10" fill="#8ec2ff"/>
        <rect x="912" y="346" width="164" height="18" rx="9" fill="#d5dfeb"/>
        <rect x="912" y="388" width="400" height="22" rx="11" fill="#dce5f0"/>
        <rect x="912" y="438" width="340" height="22" rx="11" fill="#dce5f0"/>
        <rect x="912" y="488" width="290" height="22" rx="11" fill="#dce5f0"/>
        <rect x="912" y="544" width="210" height="56" rx="18" fill="#f0a500"/>
      </g>
</svg>